<svg width="17" height="24" viewBox="0 0 17 24" fill="none" xmlns="http://www.w3.org/2000/svg">
<path d="M8.5 1.5L3.5 6.5L4.75 5.25C5.44036 4.55964 5.44036 3.44036 4.75 2.75V2.75C4.05964 2.05964 2.94036 2.05964 2.25 2.75L1.58579 3.41421C1.21071 3.78929 1 4.29799 1 4.82843V14V18.5M1 18.5H3.5M1 18.5V20.5C1 21.6046 1.89543 22.5 3 22.5H16M5.5 8.5L7.11325 10.9199C7.35487 11.2823 7.76164 11.5 8.19722 11.5V11.5C8.91673 11.5 9.5 10.9167 9.5 10.1972V10.0472C9.5 9.4218 9.09984 8.86661 8.50658 8.66886L6.06066 7.85355C5.66925 7.72308 5.31549 8.13098 5.5 8.5V8.5ZM11 7.30278L12.6132 9.72265C12.8549 10.0851 13.2616 10.3028 13.6972 10.3028C14.4167 10.3028 15 9.7195 15 9V8.84993C15 8.22458 14.5998 7.66939 14.0066 7.47164L11.5607 6.65633C11.1692 6.52586 10.8155 6.93375 11 7.30278ZM7.5 14L9.11325 16.4199C9.35487 16.7823 9.76164 17 10.1972 17C10.9167 17 11.5 16.4167 11.5 15.6972V15.5472C11.5 14.9218 11.0998 14.3666 10.5066 14.1689L8.06066 13.3536C7.66925 13.2231 7.31549 13.631 7.5 14Z" stroke="#030303" stroke-width="1.5" stroke-linecap="round"/>
</svg>
