<svg width="25" height="26" viewBox="0 0 25 26" fill="none" xmlns="http://www.w3.org/2000/svg">
<path d="M1 24.5V20.9615M24 24.5V20.9615M1 20.9615V13C1 12.0229 1.79211 11.2308 2.76923 11.2308V11.2308M1 20.9615H24M24 20.9615V13C24 12.0229 23.2079 11.2308 22.2308 11.2308V11.2308M2.76923 11.2308V3.5C2.76923 2.39543 3.66466 1.5 4.76923 1.5H20.2308C21.3353 1.5 22.2308 2.39543 22.2308 3.5V11.2308M2.76923 11.2308H8.07692M22.2308 11.2308H16.9231M8.07692 11.2308V9.69231C8.07692 8.58774 8.97235 7.69231 10.0769 7.69231H15.1538V7.69231C16.131 7.69231 16.9231 8.48442 16.9231 9.46154V11.2308M8.07692 11.2308H16.9231" stroke="#030303" stroke-width="1.5" stroke-linecap="round"/>
</svg>
