<svg width="55" height="55" viewBox="0 0 55 55" fill="none" xmlns="http://www.w3.org/2000/svg">
<path d="M16.1555 13.6895V15.3812C16.7211 15.3812 17.2493 15.0985 17.563 14.6279L16.1555 13.6895ZM19.3274 8.93165L17.9198 7.99328V7.99328L19.3274 8.93165ZM35.5391 8.93165L36.9467 7.99328L35.5391 8.93165ZM38.711 13.6895L37.3035 14.6279C37.6172 15.0985 38.1454 15.3812 38.711 15.3812V13.6895ZM32.5082 30.6062C32.5082 33.409 30.2361 35.6812 27.4332 35.6812V39.0645C32.1047 39.0645 35.8916 35.2776 35.8916 30.6062H32.5082ZM27.4332 35.6812C24.6304 35.6812 22.3582 33.409 22.3582 30.6062H18.9749C18.9749 35.2776 22.7618 39.0645 27.4332 39.0645V35.6812ZM22.3582 30.6062C22.3582 27.8033 24.6304 25.5312 27.4332 25.5312V22.1479C22.7618 22.1479 18.9749 25.9348 18.9749 30.6062H22.3582ZM27.4332 25.5312C30.2361 25.5312 32.5082 27.8033 32.5082 30.6062H35.8916C35.8916 25.9348 32.1047 22.1479 27.4332 22.1479V25.5312ZM17.563 14.6279L20.7349 9.87002L17.9198 7.99328L14.7479 12.7511L17.563 14.6279ZM23.0808 8.61452H31.7856V5.23118H23.0808V8.61452ZM34.1316 9.87002L37.3035 14.6279L40.1186 12.7511L36.9467 7.99328L34.1316 9.87002ZM31.7856 8.61452C32.7283 8.61452 33.6086 9.08565 34.1316 9.87002L36.9467 7.99328C35.7963 6.26768 33.8596 5.23118 31.7856 5.23118V8.61452ZM20.7349 9.87002C21.2578 9.08565 22.1382 8.61452 23.0808 8.61452V5.23118C21.0069 5.23118 19.0702 6.26767 17.9198 7.99328L20.7349 9.87002ZM48.2971 22.7117V38.5006H51.6805V22.7117H48.2971ZM40.9666 45.8312H13.8999V49.2145H40.9666V45.8312ZM6.56935 38.5006V22.7117H3.18602V38.5006H6.56935ZM13.8999 45.8312C9.85135 45.8312 6.56935 42.5492 6.56935 38.5006H3.18602C3.18602 44.4177 7.98279 49.2145 13.8999 49.2145V45.8312ZM48.2971 38.5006C48.2971 42.5492 45.0151 45.8312 40.9666 45.8312V49.2145C46.8837 49.2145 51.6805 44.4177 51.6805 38.5006H48.2971ZM40.9666 15.3812C45.0151 15.3812 48.2971 18.6632 48.2971 22.7117H51.6805C51.6805 16.7946 46.8837 11.9979 40.9666 11.9979V15.3812ZM13.8999 11.9979C7.98279 11.9979 3.18602 16.7946 3.18602 22.7117H6.56935C6.56935 18.6632 9.85135 15.3812 13.8999 15.3812V11.9979ZM13.8999 15.3812H16.1555V11.9979H13.8999V15.3812ZM40.9666 11.9979H38.711V15.3812H40.9666V11.9979Z" fill="#000E08"/>
<circle cx="27.4333" cy="13.6891" r="2.25556" fill="#000E08"/>
</svg>
